<?xml version="1.0" encoding="UTF-8"?>
<svg width="2412px" height="2794px" viewBox="0 0 2412 2794" version="1.1" xmlns="http://www.w3.org/2000/svg" xmlns:xlink="http://www.w3.org/1999/xlink">
    <!-- Generator: Sketch 49.3 (51167) - http://www.bohemiancoding.com/sketch -->
    <title>Language-Icon-Fireworks [Converted]</title>
    <desc>Created with Sketch.</desc>
    <defs>
        <polygon id="path-1" points="0 0.04 2181 0.04 2181 2445 0 2445"></polygon>
    </defs>
    <g id="Page-1" stroke="none" stroke-width="1" fill="none" fill-rule="evenodd">
        <g id="Language-Icon-Fireworks-[Converted]">
            <polyline id="Fill-1" fill="#000105" points="1204.57 359.16 271.83 29.96 271.83 2060.05 1204.57 1758.28 1204.57 359.16"></polyline>
            <polyline id="Fill-2" fill="#FFFFFE" points="1182.18 358.14 2150.63 28.95 2150.63 2059.04 1182.18 1757.27 1182.18 358.14"></polyline>
            <polyline id="Fill-3" fill="#FFFFFE" points="29.96 2415.43 1182.18 2031.38 1182.18 357.92 29.96 741.97 29.96 2415.43"></polyline>
            <polyline id="Fill-4" fill="#000105" points="1707.21 2440.71 1870.51 2709.37 1956.62 2459.8 1707.21 2440.71"></polyline>
            <path d="M421.74,934.75 C415.62,928.74 429.71,983.86 449.32,1003.69 C484.09,1038.77 511.25,1043.29 525.71,1043.87 C557.71,1045.15 597.2,1035.9 620.65,1026.07 C643.34,1016.39 683.1,996.09 698.15,966.48 C701.34,960.15 710.05,949.52 704.58,923.26 C700.43,903.06 687.57,895.99 671.89,897.11 C656.21,898.17 608.74,910.83 585.78,917.89 C562.81,924.86 515.5,939.26 494.88,943.73 C474.31,948.19 428.96,941.66 421.74,934.75" id="Fill-5" fill="#000105"></path>
            <path d="M1003.1,1593.67 C994.02,1590.37 806.16,1512.55 779.53,1499.8 C757.74,1489.32 704.31,1466.73 679.17,1456.47 C749.98,1347.29 794.68,1264.9 800.63,1252.35 C811.64,1229.39 886.59,1082.73 888.34,1073.7 C890.04,1064.55 892.17,1030.75 890.52,1022.72 C888.87,1014.53 861.39,1030.27 824.08,1042.92 C786.71,1055.52 715.69,1101.71 688.26,1107.5 C660.73,1113.24 572.75,1146.57 527.73,1161.51 C482.71,1176.45 397.55,1202.44 362.52,1211.9 C327.44,1221.36 296.82,1222.11 277.2,1228.06 C277.2,1228.06 279.81,1255.54 285.02,1263.78 C290.17,1272.02 308.73,1292.22 330.31,1297.86 C351.89,1303.54 387.61,1301.26 403.88,1297.54 C420.14,1293.76 448.31,1280 452.09,1273.99 C455.91,1267.88 450.12,1249.06 456.55,1243.37 C463.04,1237.74 548.78,1217.7 581.15,1207.92 C613.52,1197.97 737.43,1155.29 754.23,1157.47 C748.91,1175.12 649.24,1372.54 617.14,1431.44 C585.03,1490.33 398.51,1749.42 358.8,1795.08 C328.66,1829.79 255.62,1918.61 230.32,1938.65 C236.7,1940.41 281.93,1936.53 290.17,1931.43 C341.52,1899.8 427.05,1793.33 454.59,1760.9 C536.45,1664.9 608.37,1564.06 665.4,1477.52 L665.46,1477.52 C676.57,1482.15 766.4,1555.34 789.84,1571.56 C813.28,1587.77 905.78,1639.38 925.82,1647.94 C945.86,1656.61 1022.88,1692.12 1026.12,1680.1 C1029.36,1667.98 1012.19,1597.12 1003.1,1593.67" id="Fill-6" fill="#000105"></path>
            <path d="M569,2572 C587,2583 604,2592 623,2601 C661,2620 704,2640 745,2655 C801,2676 857,2693 913,2706 C944,2713 978,2719 1011,2724 C1014,2724 1103,2735 1121,2735 L1211,2735 C1246,2732 1279,2730 1314,2725 C1342,2721 1373,2716 1403,2709 C1425,2704 1448,2699 1470,2692 C1491,2686 1515,2678 1538,2670 C1553,2665 1569,2658 1585,2652 C1598,2646 1614,2639 1629,2633 C1647,2625 1668,2614 1688,2604 C1704,2596 1722,2586 1739,2576 C1752,2569 1782,2546 1798,2546 C1816,2546 1828,2562 1828,2576 C1828,2605 1789,2614 1771,2627 C1752,2640 1729,2650 1709,2661 C1669,2682 1628,2700 1589,2715 C1538,2734 1482,2752 1432,2764 C1413,2768 1394,2773 1375,2776 C1365,2778 1261,2794 1232,2794 L1100,2794 C1065,2791 1028,2787 993,2782 C962,2777 929,2771 898,2764 C874,2759 848,2752 825,2745 C785,2734 746,2720 708,2705 C639,2679 567,2645 499,2600 C487,2592 486,2584 486,2575 C486,2560 497,2546 515,2546 C531,2546 563,2569 569,2572" id="Fill-7" fill="#000105"></path>
            <g id="Group-11">
                <mask id="mask-2" fill="white">
                    <use xlink:href="#path-1"></use>
                </mask>
                <g id="Clip-9"></g>
                <path d="M1212,354 L1212,2034 C1211,2039 1209,2044 1205,2049 C1203,2052 1199,2056 1196,2057 C1171,2067 45,2445 30,2445 C18,2445 7,2437 1,2424 C1,2423 0,2422 0,2420 L0,739 C2,734 3,727 7,723 C15,712 29,710 38,707 C55,701 1164,329 1180,329 C1190,329 1212,336 1212,354 Z M1151,2009 L61,2372 L61,764 L1151,401 L1151,2009 Z" id="Fill-8" fill="#000105" mask="url(#mask-2)"></path>
                <path d="M2181,32 L2181,2055 C2180,2078 2164,2088 2149,2088 C2136,2088 2042,2056 2026,2051 C1900,2012 1773,1973 1648,1934 C1620,1925 1591,1916 1564,1907 C1540,1900 1514,1892 1490,1884 C1383,1851 1274,1818 1167,1782 C1163,1781 1153,1767 1153,1764 L1153,351 C1155,346 1157,340 1162,336 C1170,327 1513,213 1648,168 C1684,155 2135,0 2149,0 C2167,0 2181,13 2181,32 Z M2120,2017 L1213,1735 L1213,380 L2120,72 L2120,2017 Z" id="Fill-10" fill="#000105" mask="url(#mask-2)"></path>
            </g>
            <polyline id="Fill-12" fill="#000105" points="2411.21 2440.71 1199.5 2054.5 1204.57 373.2 2411.21 757.25 2411.21 2440.71"></polyline>
            <path d="M1728.98,853.19 L1885.09,900.48 L2169.5,1925.5 L2009.15,1876.85 L1951.54,1666.42 L1620.16,1565.98 L1548.9,1737.4 L1388.5,1688.74 L1728.98,853.19 Z M1800.35,1124.55 L1681.42,1412.01 L1900.07,1478.29 L1800.35,1124.55 Z" id="Fill-13" fill="#FFFFFE"></path>
        </g>
    </g>
</svg>