<?xml version="1.0" encoding="UTF-8"?>
<svg width="296px" height="221px" viewBox="0 0 296 221" version="1.1" xmlns="http://www.w3.org/2000/svg" xmlns:xlink="http://www.w3.org/1999/xlink">
    <!-- Generator: Sketch 49.3 (51167) - http://www.bohemiancoding.com/sketch -->
    <title>logo-white</title>
    <desc>Created with Sketch.</desc>
    <defs>
        <polygon id="path-1" points="0.06 0.853 295.742 0.853 295.742 220.94 0.06 220.94"></polygon>
        <polygon id="path-3" points="0.06 0.853 295.742 0.853 295.742 220.94 0.06 220.94"></polygon>
        <polygon id="path-5" points="0.06 0.853 295.742 0.853 295.742 220.94 0.06 220.94"></polygon>
        <polygon id="path-7" points="0.06 0.853 295.742 0.853 295.742 220.94 0.06 220.94"></polygon>
    </defs>
    <g id="Page-1" stroke="none" stroke-width="1" fill="none" fill-rule="evenodd">
        <g id="logo-white">
            <g id="Clipped">
                <g id="Shape-Clipped">
                    <mask id="mask-2" fill="white">
                        <use xlink:href="#path-1"></use>
                    </mask>
                    <g id="path-1"></g>
                    <path d="M3.156,194.885 C2.728,194.885 2.322,194.799 1.94,194.633 C1.556,194.464 1.221,194.238 0.935,193.955 C0.652,193.672 0.423,193.342 0.255,192.96 C0.083,192.581 0,192.178 0,191.752 L0,176.921 C0,176.495 0.083,176.093 0.255,175.714 C0.423,175.332 0.652,175.002 0.935,174.719 C1.221,174.435 1.556,174.209 1.94,174.041 C2.322,173.874 2.728,173.789 3.156,173.789 L37.613,173.789 L37.613,178.498 L4.736,178.498 L4.736,190.175 L37.613,190.175 L37.613,195.017 L3.156,194.885" id="Shape" fill="#DCDCDC" fill-rule="nonzero" mask="url(#mask-2)"></path>
                </g>
            </g>
            <path d="M45.78,190.308 L74.137,190.308 L74.137,178.498 L45.78,178.498 L45.78,190.308 Z M78.618,193.092 C78.449,193.474 78.223,193.804 77.94,194.087 C77.656,194.37 77.324,194.596 76.942,194.765 C76.56,194.932 76.147,195.017 75.705,195.017 L44.211,195.017 C43.767,195.017 43.353,194.932 42.972,194.765 C42.592,194.596 42.26,194.37 41.974,194.087 C41.691,193.804 41.465,193.474 41.296,193.092 C41.127,192.713 41.044,192.3 41.044,191.858 L41.044,176.947 C41.044,176.506 41.127,176.093 41.296,175.714 C41.465,175.332 41.691,175.002 41.974,174.719 C42.26,174.435 42.592,174.209 42.972,174.041 C43.353,173.874 43.767,173.789 44.211,173.789 L75.705,173.789 C76.147,173.789 76.56,173.874 76.942,174.041 C77.324,174.209 77.656,174.435 77.94,174.719 C78.223,175.002 78.449,175.332 78.618,175.714 C78.786,176.093 78.87,176.506 78.87,176.947 L78.87,191.858 C78.87,192.3 78.786,192.713 78.618,193.092 Z" id="Shape" fill="#DCDCDC" fill-rule="nonzero"></path>
            <path d="M118.534,195.017 L118.534,181.743 L105.551,195.017 L103.184,195.017 L90.177,181.743 L90.177,195.017 L85.442,195.017 L85.442,176.947 C85.442,176.506 85.525,176.093 85.694,175.714 C85.863,175.332 86.089,175.002 86.372,174.719 C86.658,174.435 86.99,174.209 87.369,174.041 C87.751,173.874 88.164,173.789 88.608,173.789 C88.962,173.789 89.255,173.895 89.484,174.108 C89.715,174.321 89.946,174.542 90.177,174.773 L104.356,189.032 L118.534,174.773 C118.745,174.56 118.981,174.345 119.238,174.121 C119.495,173.9 119.784,173.789 120.103,173.789 C120.545,173.789 120.958,173.874 121.34,174.041 C121.722,174.209 122.054,174.435 122.337,174.719 C122.62,175.002 122.846,175.332 123.015,175.714 C123.184,176.093 123.267,176.506 123.267,176.947 L123.267,195.017 L118.534,195.017" id="Shape" fill="#DCDCDC" fill-rule="nonzero"></path>
            <path d="M134.757,182.86 L163.113,182.86 L163.113,178.498 L134.757,178.498 L134.757,182.86 Z M167.594,185.645 C167.425,186.024 167.199,186.356 166.916,186.64 C166.632,186.923 166.3,187.149 165.918,187.315 C165.536,187.484 165.123,187.57 164.682,187.57 L139.199,187.57 L134.757,184.429 L134.757,195.017 L129.889,195.017 L129.941,176.947 C129.941,176.506 130.032,176.093 130.208,175.714 C130.385,175.332 130.621,175.002 130.912,174.719 C131.206,174.435 131.546,174.209 131.936,174.041 C132.328,173.874 132.744,173.789 133.188,173.789 L164.682,173.789 C165.123,173.789 165.536,173.874 165.918,174.041 C166.3,174.209 166.632,174.435 166.916,174.719 C167.199,175.002 167.425,175.334 167.594,175.714 C167.762,176.095 167.846,176.506 167.846,176.947 L167.846,184.437 C167.846,184.86 167.762,185.263 167.594,185.645 Z" id="Shape" fill="#DCDCDC" fill-rule="nonzero"></path>
            <polyline id="Shape" fill="#DCDCDC" fill-rule="nonzero" points="205.276 195.017 201.819 190.708 188.357 190.708 184.128 186.53 198.678 186.53 191.098 176.768 176.919 195.017 170.934 195.017 187.479 173.789 194.716 173.789 211.261 195.017 205.276 195.017"></polyline>
            <path d="M253.552,194.007 C253.269,194.448 252.903,194.755 252.448,194.924 C251.996,195.093 251.487,195.137 250.921,195.056 C250.352,194.976 249.793,194.786 249.245,194.485 L220.889,179.641 L220.889,195.069 L216.153,195.069 L216.153,176.688 C216.153,175.908 216.296,175.3 216.579,174.867 C216.862,174.433 217.231,174.134 217.683,173.976 C218.135,173.815 218.639,173.786 219.197,173.882 C219.758,173.981 220.32,174.17 220.889,174.454 L249.245,189.165 L249.245,173.789 L253.978,173.789 L253.978,192.17 C253.978,192.952 253.838,193.563 253.552,194.007" id="Shape" fill="#DCDCDC" fill-rule="nonzero"></path>
            <polyline id="Shape" fill="#DCDCDC" fill-rule="nonzero" points="279.462 185.624 279.491 195.017 274.409 195.017 274.409 185.624 258.13 173.843 266.268 173.843 276.883 181.483 287.603 173.789 295.742 173.789 279.462 185.624"></polyline>
            <path d="M78.618,212.3 L78.618,219.641 L81.119,219.641 C81.675,219.641 82.162,219.498 82.579,219.21 C82.997,218.924 83.32,218.501 83.545,217.94 C83.771,217.378 83.886,216.706 83.886,215.916 C83.886,215.126 83.77,214.461 83.54,213.921 C83.312,213.381 82.982,212.975 82.552,212.705 C82.122,212.435 81.613,212.3 81.024,212.3 L78.618,212.3 Z M77.329,220.745 L77.329,211.196 L81.2,211.196 C81.817,211.196 82.374,211.308 82.87,211.528 C83.368,211.752 83.79,212.069 84.136,212.477 C84.484,212.884 84.751,213.373 84.938,213.944 C85.124,214.513 85.216,215.147 85.216,215.838 C85.216,216.417 85.147,216.991 85.008,217.56 C84.87,218.132 84.644,218.657 84.33,219.137 C84.016,219.618 83.593,220.007 83.062,220.301 C82.531,220.597 81.891,220.745 81.145,220.745 L77.329,220.745 Z" id="Shape" fill="#DCDCDC" fill-rule="nonzero"></path>
            <g id="Clipped">
                <g id="Group-Clipped">
                    <mask id="mask-4" fill="white">
                        <use xlink:href="#path-3"></use>
                    </mask>
                    <g id="path-3"></g>
                    <g id="Group" mask="url(#mask-4)">
                        <g transform="translate(88.000000, 210.000000)" id="Shape">
                            <g>
                                <polyline fill="#DCDCDC" fill-rule="nonzero" points="7.376 9.602 7.376 10.745 0.328 10.745 0.328 1.196 7.281 1.196 7.281 2.339 1.618 2.339 1.618 5.264 6.843 5.264 6.843 6.407 1.618 6.407 1.618 9.602 7.376 9.602"></polyline>
                                <path d="M17.366,3.988 L16.157,3.988 C16.135,3.526 16.009,3.149 15.777,2.858 C15.545,2.567 15.253,2.36 14.901,2.235 C14.549,2.108 14.178,2.045 13.788,2.045 C13.453,2.045 13.12,2.089 12.794,2.178 C12.467,2.266 12.186,2.432 11.954,2.682 C11.721,2.931 11.605,3.277 11.605,3.721 C11.605,4.09 11.707,4.362 11.911,4.539 C12.116,4.718 12.39,4.848 12.736,4.931 L15.465,5.56 C16.909,5.9 17.631,6.752 17.631,8.111 C17.631,8.815 17.444,9.381 17.072,9.813 C16.697,10.244 16.229,10.55 15.664,10.73 C15.099,10.909 14.509,11 13.893,11 C13.113,11 12.511,10.914 12.092,10.743 C11.672,10.571 11.31,10.35 11.007,10.08 C10.628,9.737 10.372,9.374 10.238,8.992 C10.103,8.61 10.036,8.166 10.036,7.659 L11.243,7.659 C11.243,8.199 11.372,8.636 11.628,8.971 C11.883,9.306 12.209,9.542 12.606,9.683 C13.002,9.823 13.427,9.893 13.879,9.893 C14.517,9.893 15.092,9.779 15.608,9.545 C16.123,9.311 16.382,8.89 16.382,8.282 C16.382,7.947 16.321,7.68 16.201,7.482 C16.08,7.282 15.879,7.119 15.595,6.986 C15.312,6.856 14.895,6.724 14.346,6.594 L12.392,6.145 C11.033,5.828 10.355,5.079 10.355,3.897 C10.355,3.375 10.472,2.89 10.707,2.44 C10.942,1.991 11.306,1.63 11.801,1.354 C12.296,1.079 12.909,0.941 13.641,0.941 C14.656,0.941 15.436,1.108 15.982,1.44 C16.527,1.773 16.888,2.157 17.062,2.596 C17.236,3.035 17.338,3.497 17.366,3.988" fill="#DCDCDC" fill-rule="nonzero"></path>
                                <polygon fill="#DCDCDC" fill-rule="nonzero" points="20.795 1.196 22.085 1.196 22.085 10.745 20.795 10.745"></polygon>
                                <path d="M29.786,6.742 L29.786,5.638 L33.979,5.638 L33.979,10.745 L33.141,10.745 L32.832,9.509 C32.621,9.805 32.351,10.067 32.021,10.293 C31.692,10.522 31.327,10.696 30.925,10.818 C30.525,10.937 30.109,11 29.681,11 C28.951,11 28.361,10.898 27.911,10.696 C27.46,10.493 27.074,10.233 26.751,9.919 C26.409,9.594 26.134,9.249 25.925,8.885 C25.715,8.524 25.563,8.166 25.466,7.812 C25.37,7.456 25.31,7.132 25.287,6.838 C25.262,6.542 25.25,6.225 25.25,5.89 C25.25,5.074 25.418,4.287 25.752,3.526 C26.087,2.767 26.596,2.147 27.279,1.663 C27.962,1.183 28.794,0.941 29.772,0.941 C30.391,0.941 30.994,1.061 31.581,1.295 C32.168,1.531 32.666,1.887 33.072,2.365 C33.48,2.84 33.728,3.417 33.816,4.092 L32.566,4.092 C32.383,3.344 32.024,2.822 31.491,2.526 C30.959,2.232 30.365,2.084 29.708,2.084 C29.126,2.084 28.599,2.235 28.124,2.539 C27.651,2.84 27.274,3.284 26.997,3.869 C26.721,4.456 26.582,5.15 26.582,5.955 C26.582,6.669 26.677,7.319 26.864,7.908 C27.053,8.495 27.383,8.973 27.859,9.342 C28.331,9.711 28.966,9.893 29.76,9.893 C30.549,9.893 31.201,9.69 31.716,9.28 C32.11,8.968 32.384,8.607 32.537,8.197 C32.69,7.786 32.768,7.303 32.768,6.742 L29.786,6.742" fill="#DCDCDC" fill-rule="nonzero"></path>
                            </g>
                        </g>
                    </g>
                </g>
            </g>
            <polyline id="Shape" fill="#DCDCDC" fill-rule="nonzero" points="131.635 218.911 131.635 211.196 132.885 211.196 132.885 220.745 131.437 220.745 126.582 213.03 126.553 213.03 126.553 220.745 125.304 220.745 125.304 211.196 126.833 211.196 131.609 218.911 131.635 218.911"></polyline>
            <g id="Clipped">
                <g id="Group-Clipped">
                    <mask id="mask-6" fill="white">
                        <use xlink:href="#path-5"></use>
                    </mask>
                    <g id="path-5"></g>
                    <g id="Group" mask="url(#mask-6)">
                        <g transform="translate(144.000000, 211.000000)" id="Shape">
                            <g>
                                <path d="M1.478,5.29 L1.478,8.641 L4.231,8.641 C4.891,8.641 5.394,8.485 5.738,8.176 C6.082,7.867 6.255,7.441 6.255,6.898 C6.255,5.825 5.51,5.29 4.021,5.29 L1.478,5.29 Z M1.478,1.3 L1.478,4.238 L3.805,4.238 C4.46,4.238 4.956,4.121 5.295,3.887 C5.634,3.653 5.803,3.256 5.803,2.695 C5.803,2.235 5.647,1.887 5.334,1.651 C5.021,1.417 4.516,1.3 3.818,1.3 L1.478,1.3 Z M0.189,9.745 L0.189,0.196 L4.39,0.196 C4.964,0.196 5.455,0.302 5.861,0.518 C6.268,0.734 6.576,1.022 6.782,1.386 C6.989,1.749 7.092,2.155 7.092,2.601 C7.092,3.531 6.667,4.199 5.816,4.599 C6.316,4.802 6.729,5.064 7.055,5.381 C7.381,5.698 7.544,6.215 7.544,6.927 C7.544,7.446 7.419,7.919 7.168,8.348 C6.919,8.774 6.546,9.114 6.052,9.366 C5.559,9.618 4.974,9.745 4.299,9.745 L0.189,9.745 Z" fill="#DCDCDC" fill-rule="nonzero"></path>
                                <path d="M16.684,0.196 L17.972,0.196 L17.972,6.394 C17.972,6.895 17.894,7.363 17.738,7.797 C17.58,8.231 17.343,8.612 17.024,8.942 C16.707,9.272 16.302,9.529 15.812,9.717 C15.324,9.904 14.761,10 14.127,10 C13.312,10 12.627,9.841 12.075,9.527 C11.523,9.213 11.115,8.797 10.853,8.277 C10.589,7.758 10.458,7.186 10.458,6.565 L10.458,0.196 L11.747,0.196 L11.747,6.207 C11.747,7.153 11.98,7.833 12.447,8.241 C12.913,8.651 13.487,8.857 14.166,8.857 C14.602,8.857 15.009,8.776 15.389,8.618 C15.769,8.459 16.08,8.186 16.321,7.794 C16.564,7.402 16.684,6.882 16.684,6.236 L16.684,0.196" fill="#DCDCDC" fill-rule="nonzero"></path>
                            </g>
                        </g>
                    </g>
                </g>
            </g>
            <polygon id="Shape" fill="#DCDCDC" fill-rule="nonzero" points="165.549 211.196 166.838 211.196 166.838 220.745 165.549 220.745"></polygon>
            <polyline id="Shape" fill="#DCDCDC" fill-rule="nonzero" points="171.669 211.196 171.669 219.602 176.512 219.602 176.512 220.745 170.381 220.745 170.381 211.196 171.669 211.196"></polyline>
            <path d="M180.458,212.3 L180.458,219.641 L182.959,219.641 C183.515,219.641 184.001,219.498 184.419,219.21 C184.837,218.924 185.159,218.501 185.385,217.94 C185.611,217.378 185.726,216.706 185.726,215.916 C185.726,215.126 185.609,214.461 185.38,213.921 C185.152,213.381 184.822,212.975 184.39,212.705 C183.962,212.435 183.453,212.3 182.863,212.3 L180.458,212.3 Z M179.169,220.745 L179.169,211.196 L183.04,211.196 C183.655,211.196 184.214,211.308 184.71,211.528 C185.206,211.752 185.63,212.069 185.975,212.477 C186.323,212.884 186.591,213.373 186.778,213.944 C186.962,214.513 187.056,215.147 187.056,215.838 C187.056,216.417 186.986,216.991 186.848,217.56 C186.71,218.132 186.484,218.657 186.17,219.137 C185.856,219.618 185.432,220.007 184.902,220.301 C184.37,220.597 183.731,220.745 182.985,220.745 L179.169,220.745 Z" id="Shape" fill="#DCDCDC" fill-rule="nonzero"></path>
            <polygon id="Shape" fill="#DCDCDC" fill-rule="nonzero" points="190.233 211.196 191.524 211.196 191.524 220.745 190.233 220.745"></polygon>
            <g id="Clipped">
                <g id="Group-Clipped">
                    <mask id="mask-8" fill="white">
                        <use xlink:href="#path-7"></use>
                    </mask>
                    <g id="path-7"></g>
                    <g id="Group" mask="url(#mask-8)">
                        <g transform="translate(195.000000, 210.000000)" id="Shape">
                            <g>
                                <polyline fill="#DCDCDC" fill-rule="nonzero" points="6.393 8.911 6.393 1.196 7.642 1.196 7.642 10.745 6.195 10.745 1.34 3.03 1.311 3.03 1.311 10.745 0.062 10.745 0.062 1.196 1.589 1.196 6.367 8.911 6.393 8.911"></polyline>
                                <path d="M15.155,6.742 L15.155,5.638 L19.347,5.638 L19.347,10.745 L18.511,10.745 L18.202,9.509 C17.991,9.805 17.721,10.067 17.391,10.293 C17.061,10.522 16.695,10.696 16.295,10.818 C15.895,10.937 15.479,11 15.051,11 C14.321,11 13.731,10.898 13.279,10.696 C12.83,10.493 12.443,10.233 12.121,9.919 C11.778,9.594 11.502,9.249 11.294,8.885 C11.084,8.524 10.933,8.166 10.835,7.812 C10.739,7.456 10.679,7.132 10.655,6.838 C10.632,6.542 10.619,6.225 10.619,5.89 C10.619,5.074 10.788,4.287 11.12,3.526 C11.456,2.767 11.965,2.147 12.648,1.663 C13.331,1.183 14.162,0.941 15.142,0.941 C15.76,0.941 16.363,1.061 16.95,1.295 C17.537,1.531 18.036,1.887 18.441,2.365 C18.849,2.84 19.098,3.417 19.186,4.092 L17.934,4.092 C17.752,3.344 17.394,2.822 16.861,2.526 C16.329,2.232 15.734,2.084 15.077,2.084 C14.495,2.084 13.968,2.235 13.492,2.539 C13.019,2.84 12.643,3.284 12.367,3.869 C12.089,4.456 11.952,5.15 11.952,5.955 C11.952,6.669 12.045,7.319 12.232,7.908 C12.422,8.495 12.752,8.973 13.227,9.342 C13.7,9.711 14.336,9.893 15.129,9.893 C15.918,9.893 16.57,9.69 17.085,9.28 C17.48,8.968 17.752,8.607 17.906,8.197 C18.059,7.786 18.137,7.303 18.137,6.742 L15.155,6.742" fill="#DCDCDC" fill-rule="nonzero"></path>
                            </g>
                        </g>
                    </g>
                </g>
            </g>
            <path d="M115.536,123.524 L130.715,123.524 L130.715,83.751 L115.536,73.961 L115.536,123.524 Z M139.57,133.259 L106.682,133.259 L106.682,56.962 L130.715,72.464 L130.715,0.853 L139.57,7.807 L139.57,133.259 Z" id="Shape" fill="#DCDCDC" fill-rule="nonzero"></path>
            <path d="M171.082,73.961 L155.903,83.751 L155.903,123.524 L171.082,123.524 L171.082,73.961 Z M147.049,7.807 L155.903,0.853 L155.903,72.464 L179.937,56.962 L179.937,133.259 L147.049,133.259 L147.049,7.807 Z" id="Shape" fill="#DCDCDC" fill-rule="nonzero"></path>
            <polygon id="Shape" fill="#DCDCDC" fill-rule="nonzero" points="82.962 140.795 205.99 140.795 205.99 148.553 82.962 148.553"></polygon>
        </g>
    </g>
</svg>